<mxfile host="app.diagrams.net" agent="Mozilla/5.0 (Windows NT 10.0; Win64; x64) AppleWebKit/537.36 (KHTML, like Gecko) Chrome/131.0.0.0 Safari/537.36" version="25.0.3">
  <diagram name="Страница — 1" id="sXEMXbTnkclXFP-Kd39h">
    <mxGraphModel dx="1702" dy="439" grid="1" gridSize="10" guides="1" tooltips="1" connect="1" arrows="1" fold="1" page="1" pageScale="1" pageWidth="827" pageHeight="1169" math="0" shadow="0">
      <root>
        <mxCell id="0" />
        <mxCell id="1" parent="0" />
        <mxCell id="4LYBag67VcOAjZ2K1ueh-20" style="rounded=0;orthogonalLoop=1;jettySize=auto;html=1;exitX=0.5;exitY=0.5;exitDx=0;exitDy=0;exitPerimeter=0;entryX=1;entryY=0.5;entryDx=0;entryDy=0;" edge="1" parent="1" source="4LYBag67VcOAjZ2K1ueh-1" target="4LYBag67VcOAjZ2K1ueh-4">
          <mxGeometry relative="1" as="geometry" />
        </mxCell>
        <mxCell id="4LYBag67VcOAjZ2K1ueh-21" style="rounded=0;orthogonalLoop=1;jettySize=auto;html=1;exitX=0.5;exitY=0.5;exitDx=0;exitDy=0;exitPerimeter=0;entryX=1;entryY=0.5;entryDx=0;entryDy=0;" edge="1" parent="1" source="4LYBag67VcOAjZ2K1ueh-1" target="4LYBag67VcOAjZ2K1ueh-5">
          <mxGeometry relative="1" as="geometry" />
        </mxCell>
        <mxCell id="4LYBag67VcOAjZ2K1ueh-22" style="rounded=0;orthogonalLoop=1;jettySize=auto;html=1;exitX=0.5;exitY=0.5;exitDx=0;exitDy=0;exitPerimeter=0;entryX=1;entryY=0.5;entryDx=0;entryDy=0;" edge="1" parent="1" source="4LYBag67VcOAjZ2K1ueh-1" target="4LYBag67VcOAjZ2K1ueh-6">
          <mxGeometry relative="1" as="geometry" />
        </mxCell>
        <mxCell id="4LYBag67VcOAjZ2K1ueh-23" style="rounded=0;orthogonalLoop=1;jettySize=auto;html=1;exitX=0.5;exitY=0.5;exitDx=0;exitDy=0;exitPerimeter=0;entryX=1;entryY=0.5;entryDx=0;entryDy=0;" edge="1" parent="1" source="4LYBag67VcOAjZ2K1ueh-1" target="4LYBag67VcOAjZ2K1ueh-7">
          <mxGeometry relative="1" as="geometry" />
        </mxCell>
        <mxCell id="4LYBag67VcOAjZ2K1ueh-1" value="Student" style="shape=umlActor;verticalLabelPosition=bottom;verticalAlign=top;html=1;outlineConnect=0;" vertex="1" parent="1">
          <mxGeometry x="280" y="260" width="20" height="40" as="geometry" />
        </mxCell>
        <mxCell id="4LYBag67VcOAjZ2K1ueh-17" style="rounded=0;orthogonalLoop=1;jettySize=auto;html=1;exitX=1;exitY=0.3333333333333333;exitDx=0;exitDy=0;exitPerimeter=0;entryX=0.5;entryY=1;entryDx=0;entryDy=0;" edge="1" parent="1" source="4LYBag67VcOAjZ2K1ueh-2" target="4LYBag67VcOAjZ2K1ueh-10">
          <mxGeometry relative="1" as="geometry" />
        </mxCell>
        <mxCell id="4LYBag67VcOAjZ2K1ueh-19" style="edgeStyle=orthogonalEdgeStyle;rounded=0;orthogonalLoop=1;jettySize=auto;html=1;exitX=0.5;exitY=0.5;exitDx=0;exitDy=0;exitPerimeter=0;entryX=0.5;entryY=1;entryDx=0;entryDy=0;" edge="1" parent="1" source="4LYBag67VcOAjZ2K1ueh-2" target="4LYBag67VcOAjZ2K1ueh-9">
          <mxGeometry relative="1" as="geometry" />
        </mxCell>
        <mxCell id="4LYBag67VcOAjZ2K1ueh-30" style="rounded=0;orthogonalLoop=1;jettySize=auto;html=1;exitX=0.5;exitY=0.5;exitDx=0;exitDy=0;exitPerimeter=0;dashed=1;" edge="1" parent="1" source="4LYBag67VcOAjZ2K1ueh-2" target="4LYBag67VcOAjZ2K1ueh-3">
          <mxGeometry relative="1" as="geometry" />
        </mxCell>
        <mxCell id="4LYBag67VcOAjZ2K1ueh-31" value="include" style="edgeLabel;html=1;align=center;verticalAlign=middle;resizable=0;points=[];" vertex="1" connectable="0" parent="4LYBag67VcOAjZ2K1ueh-30">
          <mxGeometry x="-0.016" y="2" relative="1" as="geometry">
            <mxPoint as="offset" />
          </mxGeometry>
        </mxCell>
        <mxCell id="4LYBag67VcOAjZ2K1ueh-2" value="Admin" style="shape=umlActor;verticalLabelPosition=bottom;verticalAlign=top;html=1;outlineConnect=0;" vertex="1" parent="1">
          <mxGeometry x="390" y="140" width="20" height="40" as="geometry" />
        </mxCell>
        <mxCell id="4LYBag67VcOAjZ2K1ueh-24" style="rounded=0;orthogonalLoop=1;jettySize=auto;html=1;exitX=0.5;exitY=0.5;exitDx=0;exitDy=0;exitPerimeter=0;entryX=0;entryY=0.5;entryDx=0;entryDy=0;" edge="1" parent="1" source="4LYBag67VcOAjZ2K1ueh-3" target="4LYBag67VcOAjZ2K1ueh-11">
          <mxGeometry relative="1" as="geometry" />
        </mxCell>
        <mxCell id="4LYBag67VcOAjZ2K1ueh-25" style="rounded=0;orthogonalLoop=1;jettySize=auto;html=1;exitX=0.5;exitY=0.5;exitDx=0;exitDy=0;exitPerimeter=0;entryX=0;entryY=0.5;entryDx=0;entryDy=0;" edge="1" parent="1" source="4LYBag67VcOAjZ2K1ueh-3" target="4LYBag67VcOAjZ2K1ueh-12">
          <mxGeometry relative="1" as="geometry" />
        </mxCell>
        <mxCell id="4LYBag67VcOAjZ2K1ueh-26" style="rounded=0;orthogonalLoop=1;jettySize=auto;html=1;exitX=0.5;exitY=0.5;exitDx=0;exitDy=0;exitPerimeter=0;entryX=0;entryY=0.5;entryDx=0;entryDy=0;" edge="1" parent="1" source="4LYBag67VcOAjZ2K1ueh-3" target="4LYBag67VcOAjZ2K1ueh-13">
          <mxGeometry relative="1" as="geometry" />
        </mxCell>
        <mxCell id="4LYBag67VcOAjZ2K1ueh-27" style="rounded=0;orthogonalLoop=1;jettySize=auto;html=1;exitX=0.5;exitY=0.5;exitDx=0;exitDy=0;exitPerimeter=0;entryX=0;entryY=0.5;entryDx=0;entryDy=0;" edge="1" parent="1" source="4LYBag67VcOAjZ2K1ueh-3" target="4LYBag67VcOAjZ2K1ueh-14">
          <mxGeometry relative="1" as="geometry" />
        </mxCell>
        <mxCell id="4LYBag67VcOAjZ2K1ueh-3" value="Teacher" style="shape=umlActor;verticalLabelPosition=bottom;verticalAlign=top;html=1;outlineConnect=0;" vertex="1" parent="1">
          <mxGeometry x="500" y="260" width="20" height="40" as="geometry" />
        </mxCell>
        <mxCell id="4LYBag67VcOAjZ2K1ueh-4" value="Регистрация/ Авторизация" style="ellipse;whiteSpace=wrap;html=1;" vertex="1" parent="1">
          <mxGeometry x="70" y="110" width="120" height="80" as="geometry" />
        </mxCell>
        <mxCell id="4LYBag67VcOAjZ2K1ueh-29" style="edgeStyle=orthogonalEdgeStyle;rounded=0;orthogonalLoop=1;jettySize=auto;html=1;exitX=0;exitY=0.5;exitDx=0;exitDy=0;entryX=1;entryY=0.5;entryDx=0;entryDy=0;" edge="1" parent="1" source="4LYBag67VcOAjZ2K1ueh-5" target="4LYBag67VcOAjZ2K1ueh-15">
          <mxGeometry relative="1" as="geometry" />
        </mxCell>
        <mxCell id="4LYBag67VcOAjZ2K1ueh-5" value="Просмотр курсов" style="ellipse;whiteSpace=wrap;html=1;" vertex="1" parent="1">
          <mxGeometry x="70" y="200" width="120" height="80" as="geometry" />
        </mxCell>
        <mxCell id="4LYBag67VcOAjZ2K1ueh-28" style="edgeStyle=orthogonalEdgeStyle;rounded=0;orthogonalLoop=1;jettySize=auto;html=1;exitX=0;exitY=0.5;exitDx=0;exitDy=0;entryX=1;entryY=0.5;entryDx=0;entryDy=0;" edge="1" parent="1" source="4LYBag67VcOAjZ2K1ueh-6" target="4LYBag67VcOAjZ2K1ueh-16">
          <mxGeometry relative="1" as="geometry" />
        </mxCell>
        <mxCell id="4LYBag67VcOAjZ2K1ueh-6" value="Пройти тесты" style="ellipse;whiteSpace=wrap;html=1;" vertex="1" parent="1">
          <mxGeometry x="70" y="290" width="120" height="80" as="geometry" />
        </mxCell>
        <mxCell id="4LYBag67VcOAjZ2K1ueh-7" value="Оставить отзыв" style="ellipse;whiteSpace=wrap;html=1;" vertex="1" parent="1">
          <mxGeometry x="70" y="380" width="120" height="80" as="geometry" />
        </mxCell>
        <mxCell id="4LYBag67VcOAjZ2K1ueh-8" value="Управление аккаунтами" style="ellipse;whiteSpace=wrap;html=1;" vertex="1" parent="1">
          <mxGeometry x="210" y="10" width="120" height="80" as="geometry" />
        </mxCell>
        <mxCell id="4LYBag67VcOAjZ2K1ueh-9" value="Управление категориями" style="ellipse;whiteSpace=wrap;html=1;" vertex="1" parent="1">
          <mxGeometry x="340" y="10" width="120" height="80" as="geometry" />
        </mxCell>
        <mxCell id="4LYBag67VcOAjZ2K1ueh-10" value="Просмотр&amp;nbsp; аналитики" style="ellipse;whiteSpace=wrap;html=1;" vertex="1" parent="1">
          <mxGeometry x="470" y="10" width="120" height="80" as="geometry" />
        </mxCell>
        <mxCell id="4LYBag67VcOAjZ2K1ueh-11" value="Создать / Редактировать курс" style="ellipse;whiteSpace=wrap;html=1;" vertex="1" parent="1">
          <mxGeometry x="610" y="105" width="120" height="80" as="geometry" />
        </mxCell>
        <mxCell id="4LYBag67VcOAjZ2K1ueh-12" value="Добавить материалы" style="ellipse;whiteSpace=wrap;html=1;" vertex="1" parent="1">
          <mxGeometry x="610" y="195" width="120" height="80" as="geometry" />
        </mxCell>
        <mxCell id="4LYBag67VcOAjZ2K1ueh-13" value="Создать тесты" style="ellipse;whiteSpace=wrap;html=1;" vertex="1" parent="1">
          <mxGeometry x="610" y="285" width="120" height="80" as="geometry" />
        </mxCell>
        <mxCell id="4LYBag67VcOAjZ2K1ueh-14" value="Регулировать&amp;nbsp; &amp;nbsp;отзыв" style="ellipse;whiteSpace=wrap;html=1;" vertex="1" parent="1">
          <mxGeometry x="610" y="375" width="120" height="80" as="geometry" />
        </mxCell>
        <mxCell id="4LYBag67VcOAjZ2K1ueh-15" value="Регистрация на курс" style="ellipse;whiteSpace=wrap;html=1;" vertex="1" parent="1">
          <mxGeometry x="-120" y="200" width="120" height="80" as="geometry" />
        </mxCell>
        <mxCell id="4LYBag67VcOAjZ2K1ueh-16" value="Проверить результаты" style="ellipse;whiteSpace=wrap;html=1;" vertex="1" parent="1">
          <mxGeometry x="-120" y="290" width="120" height="80" as="geometry" />
        </mxCell>
        <mxCell id="4LYBag67VcOAjZ2K1ueh-18" style="rounded=0;orthogonalLoop=1;jettySize=auto;html=1;exitX=0;exitY=0.3333333333333333;exitDx=0;exitDy=0;exitPerimeter=0;entryX=0.583;entryY=1;entryDx=0;entryDy=0;entryPerimeter=0;" edge="1" parent="1" source="4LYBag67VcOAjZ2K1ueh-2" target="4LYBag67VcOAjZ2K1ueh-8">
          <mxGeometry relative="1" as="geometry" />
        </mxCell>
        <mxCell id="4LYBag67VcOAjZ2K1ueh-32" style="rounded=0;orthogonalLoop=1;jettySize=auto;html=1;exitX=0.5;exitY=0.5;exitDx=0;exitDy=0;exitPerimeter=0;entryX=0.5;entryY=0;entryDx=0;entryDy=0;entryPerimeter=0;" edge="1" parent="1" source="4LYBag67VcOAjZ2K1ueh-2" target="4LYBag67VcOAjZ2K1ueh-1">
          <mxGeometry relative="1" as="geometry" />
        </mxCell>
        <mxCell id="4LYBag67VcOAjZ2K1ueh-35" value="generalization" style="edgeLabel;html=1;align=center;verticalAlign=middle;resizable=0;points=[];" vertex="1" connectable="0" parent="4LYBag67VcOAjZ2K1ueh-32">
          <mxGeometry x="0.0612" y="4" relative="1" as="geometry">
            <mxPoint y="-1" as="offset" />
          </mxGeometry>
        </mxCell>
        <mxCell id="4LYBag67VcOAjZ2K1ueh-33" style="edgeStyle=orthogonalEdgeStyle;rounded=0;orthogonalLoop=1;jettySize=auto;html=1;exitX=0.5;exitY=0.5;exitDx=0;exitDy=0;exitPerimeter=0;entryX=0.5;entryY=0.5;entryDx=0;entryDy=0;entryPerimeter=0;" edge="1" parent="1" source="4LYBag67VcOAjZ2K1ueh-3" target="4LYBag67VcOAjZ2K1ueh-1">
          <mxGeometry relative="1" as="geometry" />
        </mxCell>
        <mxCell id="4LYBag67VcOAjZ2K1ueh-34" value="extends" style="edgeLabel;html=1;align=center;verticalAlign=middle;resizable=0;points=[];" vertex="1" connectable="0" parent="4LYBag67VcOAjZ2K1ueh-33">
          <mxGeometry x="-0.0515" y="-1" relative="1" as="geometry">
            <mxPoint as="offset" />
          </mxGeometry>
        </mxCell>
      </root>
    </mxGraphModel>
  </diagram>
</mxfile>
